<?xml version="1.0" encoding="utf-8"?>
<!-- Uploaded to: SVG Repo, www.svgrepo.com, Generator: SVG Repo Mixer Tools -->
<svg width="800px" height="800px" viewBox="-28.49 0 360.445 360.445" xmlns="http://www.w3.org/2000/svg"><defs><style>.a{fill:#211715;}.b{fill:#ffffff;}.c{fill:#a0a0a0;}.d{fill:#908b8a;}.e{fill:#5394cf;}.f{fill:#f2635f;}</style></defs><path class="a" d="M38.77,116.066q-.56-.039-1.111-.091c-.01,10.283-.05,31.735-.05,36.534v.393a27.765,27.765,0,0,1,7.947,2.284c.592.27,1.142.553,1.643.833,0-5.01.04-29.37.05-40q-2.229.183-4.581.183Q40.679,116.2,38.77,116.066Z"/><path class="b" d="M25.354,166.011a1.373,1.373,0,0,0,.215,1.016l2.5,2.9-.711-.425a5.672,5.672,0,0,0-6.471.095c-1.769,1.341-3.533,4.612-1.991,6.209,1.236,1.279,2.173,2.524,3.229,3.665C19.516,175.3,14,178.43,13.7,181.761a7.808,7.808,0,0,0,1.61,5.44,48.3,48.3,0,0,0,8.434,16.978c1.018,1.314,2.1,2.577,3.067,3.933a26.908,26.908,0,0,1,3.668,7.318,33.578,33.578,0,0,1,.38,5.971c6.653-.587,20.112-1.854,28.289-3.235.17-2.2.527-5.229.8-7.02,5.343-15.7,5.495-28.567,3.943-33.142-2.019-5.949-5.874-9.323-5.692-15.151.127-4.051-.644-9.605-4.663-10.872-2.664-.84-4.02,1.013-4.686,2.138,0,0-.479.809-1.263,2.139a18.331,18.331,0,0,0-2.025-1.072c-6.748-3.078-14.87-3.459-16.043.135-.682,1.518-.72,3.034-.242,5.548a4.5,4.5,0,0,0-1.5.727A7.534,7.534,0,0,0,25.354,166.011Z"/><path class="b" d="M301.056,357.83c-4.889-67.555-12.364-126.424-18.546-147.029a24.11,24.11,0,0,0-7.926-12.148,64.005,64.005,0,0,0-10.971-6.569c-11.13-5.377-28.954-12.524-40.362-17.283,0,0-5.835-2.133-10.914-3.993-1.568,8.794-4.238,20.255-7.16,28.215-2.389,6.506-10.222,28.667-15.556,41.333a283.6,283.6,0,0,1-13.56,27.829c-13.009-29.621-28.792-60.428-32.814-97.6l-11.853,4.659c-11.4,4.76-29.96,12.15-41.09,17.53a33.478,33.478,0,0,0-9.35,6.31,30.131,30.131,0,0,0-7.04,10.16c-2.627,6.875-4.486,12.576-6.084,17.917-12.157,2.527-31.79,5.465-43.252,4.662.356,18.413.357,38.109,2.865,57.175,1.742,13.246,5.621,26.249,17.075,33.126a32.994,32.994,0,0,0,28.853,2.945c8.128-2.945,18.4-10.715,24.747-15.228l1.968-1.4c.453,6.941.326,13.714.326,21.094,0,9.95-.59,17.3-.6,28.59Z"/><path class="a" d="M25.546,187.138c-.031-.064-.162-.536-.078-.151.044.2-.042.14.014-.009.068-.18,0-.179-.012,0-.006.107-.007.226-.007.335,0,.362.052-.063.017-.118a.908.908,0,0,1-.059.264c-.029.085-.046.177-.072.264,0,.01-.185.572-.07.238.1-.28,0,0-.028.057-.057.112-.111.224-.172.333-.1.186-.246.359-.342.548-.114.227.081-.1.107-.129-.079.084-.149.175-.229.258-.057.061-.119.116-.177.176-.367.381.015-.07.06-.031.027.024-.7.324-.3.177.291-.108-.363.1-.439.118-.192.048-.582.109-.153.057a6.926,6.926,0,0,1-.827.049,7.759,7.759,0,0,1-.835-.046c.428.044.005-.012-.177-.056-.23-.055-.448-.136-.674-.2-.325-.1.306.2.038.008-.115-.083-.262-.14-.385-.213-.231-.136-.451-.286-.674-.435-.053-.035-.36-.272-.065-.04-.091-.071-.179-.146-.267-.22a17.172,17.172,0,0,1-1.264-1.194c-.377-.391-.735-.8-1.1-1.2,0,0-.253-.3-.111-.124.158.2-.13-.186-.16-.23a8.352,8.352,0,0,1-.475-.793c-.053-.1-.1-.207-.154-.308.177.334,0,.025-.024-.057-.088-.249-.17-.5-.237-.756a6.344,6.344,0,0,1-.159-.773c.06.463,0-.372,0-.488s0-.228.009-.341.108-.563,0-.182.084-.235.1-.313c.109-.409-.2.328.021-.04.119-.194.242-.388.361-.583-.3.485.063-.05.2-.184.084-.084.177-.16.261-.245.306-.308-.227.115.009-.016.208-.115.408-.26.614-.381.077-.046.161-.08.24-.123-.258.141-.276.094.009,0,.224-.07.465-.107.686-.182.284-.095-.222.045-.2.025.061-.061.359-.012.437-.016a.9.9,0,0,1,.262.012q-.48-.076-.205-.024c.057.01.115.023.171.038.082.028.172.05.255.073.546.148-.423-.223.087.05a2.4,2.4,0,1,0,2.423-4.144,7.175,7.175,0,0,0-8.247,1.35,7.706,7.706,0,0,0-1.8,8.3,15.452,15.452,0,0,0,6.086,7.382,8.792,8.792,0,0,0,8.955.493c2.789-1.659,4.306-5.721,2.894-8.683a2.412,2.412,0,0,0-3.283-.861,2.464,2.464,0,0,0-.861,3.284Z"/><path class="a" d="M28.567,167.426a8.613,8.613,0,0,0-6.631-.995,8.509,8.509,0,0,0-4.612,3.563,7.087,7.087,0,0,0-1.286,5.4,5.784,5.784,0,0,0,1.612,2.592c.7.755,1.345,1.552,2.016,2.329.911,1.055,1.954,1.961,2.9,2.979.9.963,1.766,1.951,2.68,2.9a14.745,14.745,0,0,0,3.071,2.643,8.319,8.319,0,0,0,5.4.676,6.74,6.74,0,0,0,4.828-3.419,7.79,7.79,0,0,0-.025-7.241,2.42,2.42,0,0,0-3.283-.861,2.454,2.454,0,0,0-.861,3.284,2.732,2.732,0,0,1,.287,1.512c-.013.42.072-.273-.011.121-.025.121-.062.239-.088.359-.085.4-.064.232-.008.095a4.443,4.443,0,0,1-.269.5c-.031.054-.3.434-.125.208.152-.2-.061.066-.082.086-.1.093-.191.193-.287.288s-.313.186-.018.014a4.559,4.559,0,0,1-.4.22c.052-.023.287-.109.024-.025-.155.05-.311.1-.47.132-.068.016-.587.1-.225.056a6.5,6.5,0,0,1-.882.028c-.054,0-.569-.032-.3,0,.233.023-.151-.024-.162-.027-.108-.022-.836-.131-.881-.244-.028-.072.578.379.265.093a1.542,1.542,0,0,0-.227-.141c-.519-.317.145.157-.142-.1-.159-.143-.324-.279-.482-.423-.4-.369-.792-.757-1.174-1.149-1.325-1.365-2.536-2.839-3.933-4.132a43.345,43.345,0,0,1-3.1-3.437c-.246-.282-.495-.561-.75-.835-.112-.12-.237-.234-.342-.361.38.462,0-.01.026,0l.1.207-.047-.194.019.117q.036.279.017-.092c-.02-.014.045-.4,0-.112-.047.311.084-.282.1-.341a5.162,5.162,0,0,1,.692-1.323,5.359,5.359,0,0,1,1.051-1,2.322,2.322,0,0,1,.8-.335c.038-.009.574-.11.351-.081-.094.012.484,0,.51-.006a4.441,4.441,0,0,1,1.94.633,2.4,2.4,0,0,0,2.423-4.145Z"/><path class="a" d="M36.115,176.037c-2.351-2.753-4.608-5.58-6.9-8.381-.436-.532-.875-1.063-1.319-1.588a2.327,2.327,0,0,0-.391-.461c-.219-.138.145.3.2.431.026.057.038.615.035.169,0-.47-.162.417.019-.123a4.952,4.952,0,0,1,.607-1.48c.08-.138.578-.853.362-.589.092-.113.19-.223.291-.326.046-.047.493-.378.19-.182a3.192,3.192,0,0,1,3.462.186,20.624,20.624,0,0,1,4.1,3.776,25.663,25.663,0,0,1,2.967,4.147,8.835,8.835,0,0,1,1.449,4.4c.025-.389-.242.738-.15.531a3.265,3.265,0,0,1-.534.856,2.965,2.965,0,0,1-1.585,1.033c.272-.08-.062-.007-.14-.018.4.053-.262-.09-.345-.126.328.142-.7-.5-.481-.329a13.722,13.722,0,0,1-1.844-1.927,2.421,2.421,0,0,0-3.394,0,2.449,2.449,0,0,0,0,3.394c1.376,1.61,3,3.282,5.174,3.679,2.7.494,5.2-1.093,6.73-3.219,3.078-4.268.192-9.7-2.5-13.369a30.541,30.541,0,0,0-4.971-5.382c-2.053-1.721-4.28-3.068-7.07-2.824a7.261,7.261,0,0,0-5.67,3.552c-1.068,1.683-2.078,4.229-1.048,6.151a17.558,17.558,0,0,0,2.067,2.559c.7.844,1.383,1.695,2.07,2.546,1.716,2.122,3.446,4.232,5.219,6.307a2.421,2.421,0,0,0,3.394,0A2.449,2.449,0,0,0,36.115,176.037Z"/><path class="a" d="M50.917,155.33c.326-.538.609-1.061,1.19-1.156a2.323,2.323,0,0,1,1.885.852c1.142,1.194,1.591,3.324,1.736,5.073.21,2.528-.046,4.994.7,7.467a43.557,43.557,0,0,0,3.478,7.333,19.522,19.522,0,0,1,2.1,5.546c.03.163.054.327.081.49.067.405-.066-.6.015.094.043.38.082.759.113,1.14.076.957.109,1.917.114,2.877a68.21,68.21,0,0,1-1.806,15.145q-.588,2.64-1.326,5.246c-.5,1.766-1.27,3.552-1.62,5.346a65.271,65.271,0,0,0-.932,8.543c-.184,3.086,4.617,3.075,4.8,0a37.012,37.012,0,0,1,.96-8.012c1-3.418,2.081-6.783,2.84-10.269a72.422,72.422,0,0,0,1.878-16.559,30.479,30.479,0,0,0-.6-5.866,27.387,27.387,0,0,0-2.933-6.993c-1.225-2.276-2.656-4.586-2.962-7.207-.142-1.22,0-2.464-.071-3.691a21.668,21.668,0,0,0-.58-4.1c-.734-2.909-2.392-5.607-5.271-6.758-3.255-1.3-6.226.187-7.948,3.031-1.6,2.65,2.545,5.065,4.145,2.423Z"/><path class="a" d="M41.864,165.407a27.442,27.442,0,0,0,.381,6.446,14.929,14.929,0,0,1-.291,5.45,25.886,25.886,0,0,0-.436,12.117c.691,3.01,5.32,1.736,4.629-1.276-.827-3.6-.176-6.9.641-10.418a17.173,17.173,0,0,0,.232-6.077,26.036,26.036,0,0,1-.356-6.242,2.415,2.415,0,0,0-2.4-2.4,2.458,2.458,0,0,0-2.4,2.4Z"/><path class="a" d="M39.461,165.917c3.212,1.374,7.5,2.921,10.928,1.37a6.4,6.4,0,0,0,2.44-9.4c-2.414-3.541-6.791-5.411-10.782-6.527-3.432-.96-7.685-1.656-11.119-.322a6.814,6.814,0,0,0-2.431,1.49,5.36,5.36,0,0,0-.829,1.073,6.636,6.636,0,0,0-.574,1.328c-.837,2.169-.527,4.507-.111,6.731a2.423,2.423,0,0,0,2.953,1.676,2.451,2.451,0,0,0,1.676-2.952,8.91,8.91,0,0,1-.1-3.561,3.047,3.047,0,0,1,.2-.576c.317-.9.012.241.063-.141a.733.733,0,0,1,.141-.239c-.319.281-.035.042.12-.076-.4.3.2-.107.351-.186.365-.2-.17.029.251-.1.274-.081.546-.151.824-.216A7.44,7.44,0,0,1,35,155.154a17.9,17.9,0,0,1,4.044.408,20.221,20.221,0,0,1,8.384,3.491,8.45,8.45,0,0,1,.778.711c.06.06.461.5.334.338a4.613,4.613,0,0,1,.406.619,3.773,3.773,0,0,1,.211.41c-.092-.221-.067-.151-.017.035.1.371.047-.18.057.294a3.122,3.122,0,0,1-.016.529c.01-.065.035-.258-.03,0a1.039,1.039,0,0,1-.476.785,3.481,3.481,0,0,1-2.133.288c-.287-.034-1.357-.245-1.932-.392a18.838,18.838,0,0,1-2.723-.9,2.481,2.481,0,0,0-3.284.861,2.416,2.416,0,0,0,.861,3.283Z"/><path class="a" d="M13.405,189.3a52.324,52.324,0,0,0,8.916,16.929,36.558,36.558,0,0,1,4.992,7.585c1.257,2.812,1.112,5.649,1.156,8.678.045,3.086,4.845,3.095,4.8,0-.046-3.15.109-6.358-1.064-9.333a33.313,33.313,0,0,0-5.073-8.553,50.583,50.583,0,0,1-9.1-16.582c-.91-2.942-5.545-1.686-4.629,1.276Z"/><path class="b" d="M230.668,87.657a7.949,7.949,0,0,1,6.36-1.861,7.507,7.507,0,0,1,5.4,3.588,10.609,10.609,0,0,1,1.111,4.269,31.805,31.805,0,0,1-3.242,16.857,20.225,20.225,0,0,1-5.227,6.86c-2.136,1.7-4.282,2.517-7.825.726a47.542,47.542,0,0,1-2.071,7.472c-1.677,4.482-10.458,19.15-21.871,26.14.014,3.6.207,7.353,1.408,10.327,2.58,6.39,16.52,14.43,17.48,14.85,0,0-7.9,29.916-45.233,29.916s-42.247-29.916-42.247-29.916c.96-.42,12.71-7.34,15.3-13.73,1.215-3,1.4-6.769,1.41-10.376a44.764,44.764,0,0,1-14.316-11.6,53.854,53.854,0,0,1-10.858-21.89c-3.286,1.312-5.738-.384-7.659-1.916a20.213,20.213,0,0,1-5.227-6.86,31.806,31.806,0,0,1-3.243-16.857,10.61,10.61,0,0,1,1.112-4.269,7.506,7.506,0,0,1,5.4-3.588,7.952,7.952,0,0,1,6.361,1.861S119.4,35.69,172.955,35.69C234.51,35.69,230.668,87.657,230.668,87.657Z"/><path class="a" d="M135.919,178.958a28.835,28.835,0,0,0,3.959-2.421,58.666,58.666,0,0,0,6.77-5.238,21.932,21.932,0,0,0,5.235-6.48c1.766-3.73,1.916-8.029,1.935-12.084.015-3.089-4.785-3.093-4.8,0a44.226,44.226,0,0,1-.29,5.754,15.246,15.246,0,0,1-1.217,4.36,20.139,20.139,0,0,1-4.721,5.471,51.722,51.722,0,0,1-5.752,4.351,26.908,26.908,0,0,1-3.541,2.142,2.419,2.419,0,0,0-.861,3.284,2.457,2.457,0,0,0,3.283.861Z"/><path class="a" d="M200.908,152.705c.074,4.05.3,8.588,2.553,12.1a28.365,28.365,0,0,0,6.077,6.416,78.14,78.14,0,0,0,7.327,5.294,33.865,33.865,0,0,0,4.112,2.441,2.471,2.471,0,0,0,3.283-.861,2.419,2.419,0,0,0-.861-3.284,31.764,31.764,0,0,1-3.711-2.185,70.746,70.746,0,0,1-6.292-4.423,42.879,42.879,0,0,1-3.306-2.91,20.687,20.687,0,0,1-2.219-2.514,11.245,11.245,0,0,1-.922-1.572c.261.55-.189-.519-.2-.563-.175-.521-.319-1.051-.442-1.587a30.91,30.91,0,0,1-.595-6.354c-.056-3.085-4.856-3.095-4.8,0Z"/><path class="b" d="M210.16,164.586a24.517,24.517,0,0,0-5.076-6.39c-3.861,5.19-12.675,11.671-23.24,15.921a6,6,0,0,0-2.054,1.162c-.253.471.239.885.471,1.255a16.521,16.521,0,0,0,1.657,1.741c-3.32,0-5.788.013-8.911.015a16.684,16.684,0,0,0,1.676-1.756c.231-.37.723-.784.47-1.255a6,6,0,0,0-2.054-1.162c-10.565-4.25-19.379-10.731-23.24-15.921-3.482,3.2-4.792,5.74-6.884,9.776,3.555,38.346,19.774,69.9,33.086,100.213a283.489,283.489,0,0,0,13.56-27.829c5.334-12.666,13.167-34.827,15.556-41.333,3.1-8.451,5.92-20.847,7.436-29.809C211.683,167.435,210.933,165.941,210.16,164.586Z"/><path class="b" d="M134.066,280.912l-1.429-2.767c-4.1-6.828-6.423-18.651-7.282-24.789-1.046-7.472,1.7-23.58,3.186-29.643,1.365,2.428,7.374,16.331,9.046,20.255,3.177,7.457,8.626,17.6,6.316,25.832-1.745,6.218-4.567,7.02-8.079,8.876-3.75,1.98-7.209.86-10.73,2.592-2.606,1.283-3.108,3.744-2.771,6.165.44,3.157,3.137,6.592,6.677,5.786,1.613-.368,2.909-1.525,4.349-2.34,1.91-1.082,4.278-2.02,6.268-2.948,4.552-2.124,8.826-4.431,11.607-8.724,3-4.627,4.774-9.845,4.172-15.325-2.048-18.662-14.781-34.452-20.483-51.207-.5-8.563,2.687-28.5,7.486-38.763,0,0,.437-.5,1.078-1.251q-.516-4.278-.815-8.67c-6.053,2.72-13.531,11.888-15.79,24.787-1.247,7.121-2.911,14.472-4.4,22.911-5.585,13.9-7.62,32.834-7,42.069.6,8.978,3.085,20.4,7.8,27.758l1.347,3.062Z"/><path class="b" d="M233.378,247.717c.589-5.152-1.037-10.831-5.676-13.261,4.314-23.468,2.832-34.992-.081-48.211-1.714-7.779-7.245-18.2-14.225-22.209-.3,2.327-.756,5.182-1.33,8.32,1.611,1.611,4.055,7.222,4.778,9.889,5.068,18.79,5.584,30.782,2.473,51.1-5.573,1.228-7.9,6.555-8.393,8.618-1.316,5.544-.872,12.741,4.131,16.317a9.618,9.618,0,0,0,3.823,1.614c7.9,1.5,13.042-4.277,14.3-10.874C233.261,248.592,233.328,248.156,233.378,247.717Z"/><path class="c" d="M148.007,291.384a4.889,4.889,0,0,0-2.585-4l-2.411-1.14c-1.1.593-2.238,1.144-3.394,1.684-1.466.684-3.136,1.373-4.678,2.12a18.938,18.938,0,0,0,2.252,4.05,5.776,5.776,0,0,0,3.519,2.207,6.682,6.682,0,0,0,2.651-.247c1.8-.474,3.649-1.418,4.424-3.114A3.152,3.152,0,0,0,148.007,291.384Z"/><path class="c" d="M122.239,286.535a5.142,5.142,0,0,1,2.855-5.267,17.312,17.312,0,0,1,6.043-1.286,26.246,26.246,0,0,1,2.5,10.741c-.1.048-.2.1-.293.156-1.44.815-2.736,1.972-4.349,2.34-3.54.806-6.237-2.629-6.677-5.786C122.281,287.133,122.252,286.833,122.239,286.535Z"/><path class="d" d="M135.018,17.182c4.423-5.57,11.826-9.937,19.27-11.826A78.06,78.06,0,0,1,180.28,2.54c18.078,1.563,35.766,10.028,47.127,24.176,12.862,16.019,14.984,41.251,8.61,59.006a7.872,7.872,0,0,0-5.311,1.9c-1.083-6.528-4.252-16.018-6.571-22.342a5.808,5.808,0,0,0-1.769-2.829,8.466,8.466,0,0,0-3.694-1.269c-8.294-1.4-13.031-2.411-21.5-2.827-9.113-.448-15.694,3.846-24.445,1.778-5.141-1.215-16.635-7.045-20.555-9.951-1.056-.771-2-1.518-2.881-2.1-1.05-.7-2.434-1.374-3.545-.782a3.9,3.9,0,0,0-.618.437c-.59.48-1.458,1.17-2.007,1.664-12.253,10.4-19.175,24.96-18.745,39.471v.047l-1.4-1.263a7.952,7.952,0,0,0-6.361-1.861,7.666,7.666,0,0,0-2.365.762c-4.222-13.012-3.573-31.866-.637-41.757l.79-2.661c3.051-9.079,8.064-15.765,13.878-19.058Z"/><path class="e" d="M164.549,235.958l.008-.128c2.105-17.254,5-38.413,5-39.017a13.253,13.253,0,0,0-.518-3.175c-.121-.483-.242-.949-.345-1.432-.642-2.746-1.05-4.654-1.632-7.673.827-.862,1.645-1.728,2.432-2.592,1.47-1.613,2.647-2.8,3.512-3.648,3.12,0,5.587-.013,8.906-.018.865.852,2.049,2.04,3.531,3.666,1.018,1.118,2.088,2.239,3.164,3.351-.332,1.331-.52,2.083-.52,2.083-.328,1.311-.69,2.674-1.173,4.158a19.339,19.339,0,0,0-1.242,5.625c-.018.984,2.795,19.549,5.452,37.32,0,0,.087.623.231,1.646-.6,1.5-1.182,2.915-1.737,4.232a283.489,283.489,0,0,1-13.56,27.829c-3.839-8.743-7.921-17.589-11.87-26.671C164.361,238.87,164.512,236.52,164.549,235.958Z"/><path class="b" d="M195.779,192.941a103.443,103.443,0,0,0,16-25.333c-1.985-3.827-3.319-6.308-6.695-9.412-3.861,5.19-12.675,11.671-23.24,15.921a6,6,0,0,0-2.054,1.162c-.253.471.239.885.471,1.255.363.582,2.148,2.074,5.185,5.407C188.891,185.723,192.927,189.534,195.779,192.941Z"/><path class="b" d="M159.164,192.941a103.443,103.443,0,0,1-16-25.333c1.985-3.827,3.319-6.308,6.7-9.412,3.861,5.19,12.675,11.671,23.24,15.921a6,6,0,0,1,2.054,1.162c.253.471-.239.885-.47,1.255-.364.582-2.149,2.074-5.186,5.407C166.052,185.723,162.016,189.534,159.164,192.941Z"/><path class="a" d="M69.609,229.571c1.67-5.651,3.489-11.253,5.528-16.782a31.093,31.093,0,0,1,4.184-8.246A29.4,29.4,0,0,1,85.7,198.2c4.348-3.067,9.443-5.1,14.292-7.238,5.132-2.261,10.306-4.428,15.488-6.573,5.515-2.284,11.045-4.532,16.553-6.831a2.48,2.48,0,0,0,1.677-2.952,2.416,2.416,0,0,0-2.953-1.677c-10.6,4.424-21.272,8.684-31.8,13.28-5.055,2.207-10.386,4.3-14.989,7.373a32.979,32.979,0,0,0-12.212,14.634c-2.64,6.543-4.774,13.317-6.774,20.08-.878,2.968,3.753,4.236,4.629,1.276Z"/><path class="a" d="M222.613,177.115c13.36,5.571,26.927,10.784,39.951,17.12,6.269,3.05,12.546,6.551,15.9,12.919,2.038,3.869,2.921,8.427,3.865,12.671,2.37,10.642,4.035,21.445,5.574,32.234,2.124,14.891,3.859,29.838,5.417,44.8q2.8,26.863,4.8,53.8.271,3.584.531,7.168a2.459,2.459,0,0,0,2.4,2.4,2.42,2.42,0,0,0,2.4-2.4q-2.013-27.779-4.775-55.5c-1.589-15.769-3.384-31.521-5.543-47.223-1.576-11.464-3.291-22.937-5.681-34.263a104.588,104.588,0,0,0-2.9-11.536,27.84,27.84,0,0,0-5.763-10,35.629,35.629,0,0,0-8.675-6.5c-6.351-3.67-13.213-6.5-19.946-9.378-7.215-3.086-14.475-6.064-21.728-9.06q-2.277-.941-4.553-1.889a2.414,2.414,0,0,0-2.952,1.677,2.461,2.461,0,0,0,1.676,2.952Z"/><path class="a" d="M256.072,358.127c-.015-9.172-.558-18.332-.6-27.5-.043-10.076-.313-20.261,1.141-30.26.7-4.847,1.677-9.659,2.5-14.488q1.233-7.27,2.375-14.557,2.325-14.822,4.318-29.693,2.1-15.643,3.829-31.336a2.415,2.415,0,0,0-2.4-2.4,2.456,2.456,0,0,0-2.4,2.4q-3.1,28.6-7.553,57.037c-1.492,9.645-3.148,19.257-4.83,28.87-1.777,10.156-1.811,20.4-1.783,30.679.029,10.422.587,20.83.6,31.251,0,3.088,4.805,3.094,4.8,0Z"/><path class="a" d="M84.125,213.021q3.124,28.446,7.607,56.725c1.514,9.666,3.305,19.283,4.878,28.938,1.582,9.717,1.422,19.583,1.4,29.395-.018,10.021-.585,20.028-.6,30.048-.005,3.089,4.795,3.093,4.8,0,.015-8.816.518-17.62.591-26.435.082-9.776.286-19.637-.875-29.362-.592-4.952-1.571-9.847-2.422-14.759q-1.251-7.229-2.412-14.473-2.344-14.613-4.355-29.276-2.111-15.373-3.814-30.8a2.471,2.471,0,0,0-2.4-2.4,2.416,2.416,0,0,0-2.4,2.4Z"/><path class="a" d="M116.073,84.275c-2.512-8.98-2.877-18.6-2.071-27.854.654-7.5,2.48-15.051,6.307-21.6a26.043,26.043,0,0,1,9.192-9.671c2.675-1.542.261-5.692-2.423-4.144-8.038,4.634-12.882,13.421-15.447,22.063a78.224,78.224,0,0,0-2.689,25.519,74.915,74.915,0,0,0,2.5,16.959c.831,2.97,5.463,1.708,4.629-1.276Z"/><path class="a" d="M136.715,18.879C143.661,10.269,154.645,7,165.194,5.5A67.562,67.562,0,0,1,197,8.543a63.852,63.852,0,0,1,26.012,16.74,53.431,53.431,0,0,1,12.834,26.2,64.592,64.592,0,0,1-1.657,32.188c-.952,2.946,3.681,4.208,4.629,1.276A69.4,69.4,0,0,0,241.1,53.917c-1.5-10.511-5.417-20.752-12.123-29.051C214.705,7.2,190.734-1.886,168.331.328c-12.7,1.255-26.631,4.771-35.01,15.157a2.471,2.471,0,0,0,0,3.394,2.417,2.417,0,0,0,3.394,0Z"/><path class="a" d="M126.781,88.873a46.413,46.413,0,0,1,9-28.055,51.575,51.575,0,0,1,10.781-11.165c.456-.342,0-.177.425-.107a4.321,4.321,0,0,1,1.431.835c1.063.728,2.06,1.55,3.121,2.283,1.446,1,2.976,1.88,4.513,2.731a102.242,102.242,0,0,0,11.92,5.679,26.439,26.439,0,0,0,13.218,1.787c5.283-.654,10.391-2.321,15.764-2.114a120.975,120.975,0,0,1,15.817,1.845l4.788.825c1.133.194,2.907.263,3.68,1.269a11.843,11.843,0,0,1,1.288,3.185q.7,1.964,1.367,3.94a109.465,109.465,0,0,1,4.5,16.452,2.42,2.42,0,0,0,2.952,1.677,2.457,2.457,0,0,0,1.677-2.953,106.868,106.868,0,0,0-4.248-15.7c-.779-2.34-1.563-4.689-2.454-6.988a8.3,8.3,0,0,0-2.258-3.546,9.248,9.248,0,0,0-4.353-1.816c-5.546-1.042-11.153-2.006-16.77-2.563A54.768,54.768,0,0,0,193.711,56a67.934,67.934,0,0,0-8.575,1.349c-4.768.956-9.349,1.416-14.027-.208a80.593,80.593,0,0,1-11.792-5.429c-1.73-.937-3.452-1.908-5.085-3.008-2.194-1.477-4.288-3.725-7.055-3.984-2.793-.261-5.088,2.359-7.008,4.085a56.709,56.709,0,0,0-5.955,6.228c-7.794,9.52-12.546,21.441-12.233,33.84.078,3.084,4.878,3.095,4.8,0Z"/><path class="a" d="M170.293,199.067c4.969,0,9.938-.11,14.907-.112a2.4,2.4,0,0,0,0-4.8c-4.969,0-9.938.11-14.907.112a2.4,2.4,0,0,0,0,4.8Z"/><path class="a" d="M164.985,186.374q.643,3.247,1.4,6.47a14.611,14.611,0,0,1,.758,4.184c-.1,1.483-.371,2.972-.563,4.445-.886,6.783-1.786,13.564-2.659,20.349q-.9,7-1.762,14.008a2.413,2.413,0,0,0,2.4,2.4,2.459,2.459,0,0,0,2.4-2.4c.991-8.115,2.041-16.223,3.1-24.329.624-4.764,1.471-9.554,1.866-14.344a13.876,13.876,0,0,0-.631-4.4c-.629-2.538-1.174-5.1-1.682-7.663a2.4,2.4,0,0,0-4.629,1.276Z"/><path class="a" d="M181.631,175.875l-8.841.019a2.4,2.4,0,0,0,0,4.8l8.841-.019a2.4,2.4,0,0,0,0-4.8Z"/><path class="a" d="M193.441,233.84q-1.738-11.624-3.476-23.248-.641-4.32-1.266-8.644-.222-1.541-.433-3.083c-.025-.185.056.441-.007-.052-.019-.149-.039-.3-.057-.446-.033-.261-.072-.523-.094-.785a9.379,9.379,0,0,1,.459-3.278c.583-2.108,1.3-4.167,1.837-6.291.755-3-3.873-4.274-4.628-1.276-.852,3.385-2.635,6.991-2.5,10.536.058,1.481.371,2.979.577,4.444.9,6.405,1.873,12.8,2.83,19.2q1.062,7.1,2.127,14.2a2.415,2.415,0,0,0,2.952,1.676,2.46,2.46,0,0,0,1.676-2.952Z"/><path class="a" d="M201.927,263.892c-5.3,5.1-10.676,10.118-16.2,14.965a2.4,2.4,0,0,0,3.394,3.395c5.53-4.848,10.907-9.868,16.2-14.966a2.4,2.4,0,0,0-3.394-3.394Z"/><path class="a" d="M179.225,302.139c.267.24.482.531.742.773q-.366-.481-.15-.185c.046.066.091.134.135.2.074.116.143.236.207.358.1.192.208.609-.024-.107.046.141.105.276.149.418a5.54,5.54,0,0,1,.183.834l-.085-.638a6.032,6.032,0,0,1,0,1.513l.086-.638a6.455,6.455,0,0,1-.173.838c-.032.117-.068.233-.107.348s-.232.587-.036.123,0-.018-.053.091-.109.208-.169.309-.117.185-.176.277c-.249.383.419-.482.141-.178-.1.107-.5.649-.644.625.016,0,.556-.389.188-.155-.06.037-.117.078-.177.115-.135.084-.274.163-.416.235-.064.032-.129.061-.192.092-.339.167.5-.184.228-.1-.136.044-.269.1-.406.139a6.936,6.936,0,0,1-1,.219l.638-.086a7.113,7.113,0,0,1-1.815.006l.638.086a8.372,8.372,0,0,1-1.4-.358c.723.231.394.171.208.08-.117-.058-.232-.12-.344-.187-.083-.05-.162-.105-.244-.158-.329-.212.513.441.129.1a8.718,8.718,0,0,1-.624-.622c-.282-.311.343.508,0-.014-.067-.1-.13-.2-.189-.307s-.107-.208-.161-.311c-.188-.363.219.622.034.045a4.819,4.819,0,0,1-.171-.75l.086.638a5.252,5.252,0,0,1,0-1.3l-.086.638a6.059,6.059,0,0,1,.2-.9c.043-.141.093-.279.142-.417.163-.457-.243.5-.024.063a9.307,9.307,0,0,1,.461-.829q.12-.189.251-.37a1.083,1.083,0,0,1,.132-.18c-.072.063-.393.477-.132.181.09-.1.178-.2.275-.3s.464-.391.1-.113.04-.019.139-.081q.2-.127.416-.235c.025-.012.173-.1.194-.093,0,0-.592.227-.272.117.138-.048.275-.1.416-.142a6.341,6.341,0,0,1,.983-.208l-.638.085a6.45,6.45,0,0,1,1.577,0l-.638-.086a6.2,6.2,0,0,1,.662.132c.09.025.18.051.269.08s.5.195.08.015c-.4-.171-.073-.028.018.018s.2.1.294.161.188.122.282.183c.337.221-.46-.377-.132-.095a2.559,2.559,0,0,0,1.7.7,2.4,2.4,0,0,0,1.7-4.1,7.634,7.634,0,0,0-4.905-1.866,8.111,8.111,0,0,0-4.511,1.236,8.607,8.607,0,0,0-3.606,8.656,7.444,7.444,0,0,0,3.057,4.352,8.369,8.369,0,0,0,11.585-2.63,8.372,8.372,0,0,0,.966-4.491,7.946,7.946,0,0,0-2.586-5.257,2.4,2.4,0,0,0-3.394,3.394Z"/><path class="a" d="M219.516,257.581c-5.654-1.188-7.152-6.912-6.759-12a17.381,17.381,0,0,1,.536-3.195q.085-.312.191-.618c.048-.142.1-.28.153-.42.128-.361-.219.428.082-.191a10.135,10.135,0,0,1,2.5-3.566,7.293,7.293,0,0,1,1.886-1.3,8.627,8.627,0,0,1,2.757-.766,10.036,10.036,0,0,1,6.805,1.732c3.491,2.724,3.99,8.088,2.987,12.08-1.3,5.193-5.516,9.234-11.139,8.246a2.468,2.468,0,0,0-2.952,1.677,2.421,2.421,0,0,0,1.676,2.952,14.226,14.226,0,0,0,9.985-1.555,15.528,15.528,0,0,0,6.117-7.311c2.465-5.809,2.151-13.21-1.994-18.189-3.991-4.794-12.058-5.867-17.322-2.642a15.11,15.11,0,0,0-6.765,10.588,21.1,21.1,0,0,0,.85,11.129,12.692,12.692,0,0,0,9.129,7.98C221.254,262.843,222.542,258.217,219.516,257.581Z"/><path class="a" d="M220.914,250.714a2.954,2.954,0,0,1-1.17-.494c-1.532-1.095-1.667-3.3-1.265-5A3.483,3.483,0,0,1,223,242.682c2.037.558,2.655,2.824,2.3,4.7C224.907,249.4,223.331,251.172,220.914,250.714Z"/><path class="a" d="M142.761,161.375c-6.607,2.511-11.413,8.836-14.39,15.008a50.81,50.81,0,0,0-4.071,13.2c-.889,4.9-1.917,9.763-2.869,14.645-.492,2.523-.7,5.313-1.621,7.707-.772,2-1.451,4.042-2.06,6.1a113.026,113.026,0,0,0-3.021,13.283c-1.254,7.464-2.177,15.224-1.631,22.8.7,9.74,2.822,20.248,8.1,28.609,1.646,2.605,5.8.2,4.145-2.423-4.385-6.94-6.354-15.519-7.217-23.6a84.952,84.952,0,0,1,.746-21.02,121.515,121.515,0,0,1,2.5-12.709c.524-2.058,1.109-4.1,1.771-6.12a49.181,49.181,0,0,0,1.99-6.459c.886-4.855,1.89-9.688,2.842-14.53.88-4.469,1.489-9.007,3-13.322A35,35,0,0,1,137,171.672a26.871,26.871,0,0,1,3.734-3.707,18.467,18.467,0,0,1,1.747-1.178c.3-.178.609-.347.924-.5.134-.067.269-.131.4-.193.472-.216-.291.108.224-.087a2.468,2.468,0,0,0,1.676-2.952,2.418,2.418,0,0,0-2.952-1.677Z"/><path class="a" d="M134.71,276.933c-3.889-6.58-5.509-14.637-6.721-22.1q-.088-.549-.172-1.1c-.012-.077-.15-1.055-.093-.606-.1-.756-.147-1.518-.176-2.28-.061-1.663-.011-3.329.085-4.989.215-3.732.667-7.45,1.239-11.142.539-3.473,1.152-6.948,1.983-10.365l-4.387.573c2.591,4.67,4.524,9.795,6.648,14.687,2.682,6.177,5.811,12.318,7.735,18.777,1.109,3.724,1.729,7.621.551,11.4-.989,3.173-2.48,4.6-5.246,6.021a15.032,15.032,0,0,1-5.168,1.786,21.612,21.612,0,0,0-6.9,1.5c-3.914,1.86-5.046,6.493-3.73,10.392s4.983,7.041,9.282,6.039c2.237-.521,4.025-2.161,6.039-3.176,2.04-1.027,4.166-1.87,6.223-2.861,3.748-1.805,7.466-4,10.095-7.3a27.3,27.3,0,0,0,5.61-12.573c.705-4.571-.1-9.2-1.228-13.647a82.159,82.159,0,0,0-4.455-12.538c-3.464-7.954-7.82-15.476-11.442-23.356-.855-1.858-1.662-3.736-2.388-5.649a17.143,17.143,0,0,1-.8-2.181,11.338,11.338,0,0,1-.027-1.985,82.222,82.222,0,0,1,.752-9.559,108.345,108.345,0,0,1,4.819-21.447,44.12,44.12,0,0,1,1.635-4.138,2.469,2.469,0,0,0-.861-3.284,2.42,2.42,0,0,0-3.283.861c-2.98,6.438-4.665,13.463-5.938,20.414-.659,3.6-1.186,7.223-1.545,10.862a52.668,52.668,0,0,0-.347,8.383c.122,1.94,1.175,3.951,1.914,5.736q1.269,3.058,2.691,6.051c1.811,3.813,3.769,7.553,5.683,11.315,3.812,7.49,7.5,15.135,9.344,23.383.926,4.138,1.413,8.246.216,12.382a20.686,20.686,0,0,1-6.587,10.43c-3.167,2.531-7.062,4.052-10.718,5.711-.983.445-1.965.9-2.9,1.44-.958.548-1.832,1.263-2.824,1.751a2.619,2.619,0,0,1-3.455-.805,5.653,5.653,0,0,1-1.22-3.963c.124-1.626,1.188-2.39,2.716-2.826,2-.57,4.109-.513,6.136-.933a21.208,21.208,0,0,0,5.431-2.251,13.084,13.084,0,0,0,6.262-6.465,21.062,21.062,0,0,0,1.225-12.34c-1.267-7.205-4.88-13.889-7.75-20.554-2.274-5.283-4.538-10.58-6.987-15.785-.338-.718-.673-1.44-1.058-2.134a2.426,2.426,0,0,0-4.386.573,132.345,132.345,0,0,0-3.307,21.462,46.046,46.046,0,0,0,.229,10.21,106.024,106.024,0,0,0,2.319,11.383,51.678,51.678,0,0,0,5.1,13.226c1.571,2.657,5.721.245,4.145-2.423Z"/><path class="a" d="M116.12,256.6q4.456-.267,8.893-.774a2.608,2.608,0,0,0,1.7-.7,2.438,2.438,0,0,0,.7-1.7c-.053-1.178-1.064-2.552-2.4-2.4q-4.436.506-8.893.774a2.4,2.4,0,0,0,0,4.8Z"/><path class="a" d="M142.251,252.764c.124-.054.248-.106.372-.159l-.573.242a42.257,42.257,0,0,1,6.784-2.191,2.42,2.42,0,0,0,1.676-2.952,2.45,2.45,0,0,0-2.952-1.676,45.487,45.487,0,0,0-7.729,2.591,2.4,2.4,0,0,0-1.1,1.434,2.454,2.454,0,0,0,.242,1.85,2.425,2.425,0,0,0,1.434,1.1l.638.085a2.384,2.384,0,0,0,1.211-.327Z"/><path class="a" d="M230.121,234.525c2-11.124,3.358-22.483,2.309-33.787-.872-9.386-2.617-19.08-7.356-27.341-3.006-5.242-7.117-10.183-12.815-12.54a2.414,2.414,0,0,0-2.952,1.676,2.46,2.46,0,0,0,1.676,2.952c4.151,1.717,7.318,5.916,9.574,9.7a42.956,42.956,0,0,1,5.081,13.229,96.727,96.727,0,0,1,2.257,25.067,150.58,150.58,0,0,1-2.4,19.771,2.467,2.467,0,0,0,1.676,2.952,2.422,2.422,0,0,0,2.953-1.676Z"/><path class="a" d="M129.32,281.739a26.828,26.828,0,0,1,1.774,6.557l-.085-.638q.135,1.021.2,2.05a2.4,2.4,0,0,0,4.8,0,28.647,28.647,0,0,0-2.056-9.245,2.643,2.643,0,0,0-1.1-1.434,2.4,2.4,0,0,0-3.284.861,2.317,2.317,0,0,0-.242,1.849Z"/><path class="a" d="M144.413,289.114c.178.075.336.17.5.261.36.191-.2-.234.06.048.14.149.286.288.419.443-.3-.354-.007.01.053.105.114.181.208.37.308.559.21.4-.069-.283.042.112.057.2.128.4.174.606.054.239.044.407.027.072.01.194.01.389.017.584.018.428.115-.352,0,.016-.175.571.21-.239-.043.184-.094.159-.18.319-.283.473.216-.321-.215.225-.279.287s-.429.366-.159.16a6.828,6.828,0,0,1-1.214.709c-.129.058-.114.054.042-.012-.117.047-.235.092-.355.134-.207.075-.417.141-.629.2-.234.067-.469.128-.706.181-.146.033-.293.062-.44.087.126-.011.118-.01-.022,0a6.982,6.982,0,0,1-.779.022c-.262-.021-.3-.023-.1,0-.095-.018-.188-.039-.281-.065s-.663-.244-.331-.092a5.127,5.127,0,0,1-.59-.325c-.082-.051-.163-.1-.242-.16.145.121.126.107-.055-.044s-.338-.3-.5-.466a4.629,4.629,0,0,1-.725-.917,22.512,22.512,0,0,1-1.5-2.878,2.008,2.008,0,0,0-2.736-.717,2.056,2.056,0,0,0-.717,2.736,13.892,13.892,0,0,0,3.42,5.133,7.816,7.816,0,0,0,2.816,1.563,7.691,7.691,0,0,0,3.623.027,9.714,9.714,0,0,0,5.2-2.646,5.646,5.646,0,0,0,1.4-5.311,6.537,6.537,0,0,0-3.4-4.525,2.058,2.058,0,0,0-2.736.717,2.022,2.022,0,0,0,.718,2.737Z"/><path class="a" d="M225.12,115.285a25.62,25.62,0,0,1-1.22,6.465c-.237.794-.5,1.581-.765,2.366-.093.271-.183.544-.278.814-.063.181-.361.838-.05.145a49.9,49.9,0,0,1-3.317,6.069,64.4,64.4,0,0,1-13.548,15.765,28.61,28.61,0,0,1-10.072,5.524c-2.965.847-1.7,5.48,1.276,4.628,7.661-2.188,14.042-7.7,19.168-13.613A66.167,66.167,0,0,0,226.8,127.837a34.025,34.025,0,0,0,3.119-12.552c.1-3.09-4.7-3.086-4.8,0Z"/><path class="a" d="M122.937,115.352c2.859,15.318,11.035,30.027,24.738,38.146a33.311,33.311,0,0,0,11.906,4.358,2.476,2.476,0,0,0,2.952-1.676,2.418,2.418,0,0,0-1.676-2.952c-14.621-2.222-25.812-15.469-30.546-28.775a68.326,68.326,0,0,1-2.746-10.377,2.421,2.421,0,0,0-2.952-1.676,2.451,2.451,0,0,0-1.676,2.952Z"/><path class="a" d="M232.365,89.354a5.483,5.483,0,0,1,7.6.636c1.081,1.368,1.182,3.325,1.254,4.992a28.342,28.342,0,0,1-.3,5.777,29.328,29.328,0,0,1-4,10.866c-1.538,2.445-4.083,5.752-7.328,4.86-2.983-.821-4.256,3.808-1.276,4.628,8.347,2.3,13.82-7.566,16-14.107a33.658,33.658,0,0,0,1.691-12.245c-.2-4.015-1.27-7.835-4.926-10.017a10.439,10.439,0,0,0-12.114,1.216,2.421,2.421,0,0,0,0,3.394,2.448,2.448,0,0,0,3.394,0Z"/><path class="a" d="M124.681,85.96a10.449,10.449,0,0,0-11.1-1.724c-3.837,1.7-5.448,5.237-5.843,9.218-.8,8.1,1.631,17.156,6.923,23.417,2.833,3.352,6.921,6.044,11.452,4.99,3.007-.7,1.734-5.329-1.276-4.629-3.153.734-6.22-2.765-7.77-5.088a28.83,28.83,0,0,1-4.258-10.946,28.391,28.391,0,0,1-.393-5.772c.047-1.678.087-3.7,1.069-5.138a5.437,5.437,0,0,1,7.8-.934,2.463,2.463,0,0,0,3.395,0,2.421,2.421,0,0,0,0-3.394Z"/><path class="a" d="M210.835,165.192a203.343,203.343,0,0,1-4.413,21.482c-1.474,5.685-3.378,11.188-5.37,16.7-4.434,12.276-8.775,24.629-13.876,36.648-6.4,15.079-14.449,29.25-22.515,43.477a110.537,110.537,0,0,0-5.222,10.258,52.77,52.77,0,0,0-3.258,8.62c-1.179,4.919-1.348,10.135-1.5,15.17-.363,12.03.188,24.063.48,36.088q.038,1.543.06,3.087c.043,3.086,4.843,3.1,4.8,0-.158-11.477-.756-22.941-.634-34.423.031-2.976.1-5.954.269-8.926.073-1.321.164-2.641.286-3.959.054-.583.113-1.166.181-1.748.036-.315.074-.63.116-.945-.06.445.058-.379.075-.485.892-5.755,3.594-11.295,6.3-16.394,3.771-7.115,7.987-14,11.857-21.063,3.843-7.014,7.458-14.148,10.723-21.451,5.695-12.737,10.416-25.9,15.162-39.009,1.784-4.928,3.677-9.832,5.169-14.858a201.868,201.868,0,0,0,5.182-22.32q.412-2.334.759-4.678a2.48,2.48,0,0,0-1.677-2.952,2.418,2.418,0,0,0-2.952,1.676Z"/><path class="a" d="M140.35,165.335a193.9,193.9,0,0,0,8.753,43.6,384.577,384.577,0,0,0,15.347,39.1c3.087,6.965,6.251,13.9,9.321,20.869a2.417,2.417,0,0,0,3.284.861,2.462,2.462,0,0,0,.861-3.284c-11.008-25-22.971-49.708-29.01-76.51a173.633,173.633,0,0,1-3.756-24.633,2.459,2.459,0,0,0-2.4-2.4,2.419,2.419,0,0,0-2.4,2.4Z"/><path class="a" d="M197.476,194.639a109.718,109.718,0,0,0,12.858-18.7q1.314-2.456,2.512-4.971a17.435,17.435,0,0,0,1.247-2.718c.328-1.191-.451-2.264-.983-3.268a31.524,31.524,0,0,0-6.329-8.479,2.446,2.446,0,0,0-3.769.486c-4.025,5.337-10.919,9.6-17.06,12.667-2,1-4.088,1.762-6.091,2.731-2.092,1.012-3.314,2.981-1.835,5.135,1.56,2.271,3.865,4.1,5.723,6.121,3.4,3.7,7.087,7.154,10.333,11a2.42,2.42,0,0,0,3.394,0,2.451,2.451,0,0,0,0-3.4c-3.052-3.615-6.506-6.865-9.719-10.332-1.382-1.491-2.766-2.972-4.209-4.4-.39-.386-.773-.778-1.163-1.164-.155-.153-.5-.659-.008.044-.059-.085-.38-.634-.343-.472v1.276l.07-.276-.617,1.059c-.244.286.251-.17.433-.267s.372-.192.562-.277c.808-.365,1.642-.677,2.455-1.031q2.142-.933,4.221-2a69.8,69.8,0,0,0,7.383-4.372,43.982,43.982,0,0,0,10.615-9.62l-3.769.485a31.163,31.163,0,0,1,6.32,8.926V166.4a109.886,109.886,0,0,1-15.625,24.847,2.466,2.466,0,0,0,0,3.4A2.421,2.421,0,0,0,197.476,194.639Z"/><path class="a" d="M160.861,191.244A109.922,109.922,0,0,1,145.236,166.4v2.422a31.176,31.176,0,0,1,6.32-8.926l-3.769-.485a43.982,43.982,0,0,0,10.615,9.62,69.971,69.971,0,0,0,7.383,4.372q1.977,1.017,4.014,1.911c.812.357,1.638.681,2.451,1.035.264.115.518.227.773.363.163.086.722.606.433.267l-.617-1.059.07.276v-1.276c.037-.162-.284.387-.343.472.5-.7.147-.2-.008-.044-.39.386-.773.778-1.162,1.164-1.444,1.431-2.828,2.912-4.209,4.4-3.214,3.467-6.668,6.717-9.72,10.332a2.465,2.465,0,0,0,0,3.4,2.421,2.421,0,0,0,3.394,0c2.855-3.383,6.065-6.444,9.1-9.665,1.405-1.494,2.777-3.016,4.227-4.468.7-.7,1.459-1.373,2.1-2.136,1.372-1.643,1.985-3.83-.03-5.3-1.651-1.2-3.817-1.782-5.662-2.647A69.64,69.64,0,0,1,159.7,164.1a37.5,37.5,0,0,1-7.769-7.115,2.446,2.446,0,0,0-3.769-.486,31.545,31.545,0,0,0-6.329,8.479c-.486.917-1.172,1.87-1.026,2.949a10.63,10.63,0,0,0,1.2,2.846q1.244,2.609,2.6,5.162a109.718,109.718,0,0,0,12.858,18.7,2.42,2.42,0,0,0,3.394,0A2.452,2.452,0,0,0,160.861,191.244Z"/><path class="a" d="M210.369,174.053c.378.4.1.055.317.37.182.262.353.532.519.805.444.733.84,1.5,1.214,2.266a36.056,36.056,0,0,1,1.774,4.3,106.119,106.119,0,0,1,4.514,35.219c-.262,5.045-.86,10.066-1.607,15.06a2.479,2.479,0,0,0,1.676,2.953,2.419,2.419,0,0,0,2.953-1.677c1.333-8.914,2.285-17.916,1.776-26.938a107.262,107.262,0,0,0-4.517-25.381,42.527,42.527,0,0,0-2.275-5.646,17.885,17.885,0,0,0-2.95-4.722c-2.133-2.243-5.523,1.155-3.394,3.394Z"/><path class="b" d="M28.045,231.747c-.392-3.27-.761-9.047-.915-10.025,2.764-.236,25.3-2.1,34.709-4.058.409,2.063,1.086,7.046,1.592,9.757"/><path class="b" d="M28.6,221.6l-1.473.126c.154.978.523,6.755.915,10.025,0,0,.006.074.014.206,10.223.1,24.657-1.905,35.473-3.943-.064-.367-.1-.589-.1-.589-.506-2.711-1.183-7.694-1.592-9.757C53.414,219.416,34.453,221.1,28.6,221.6Z"/><path class="a" d="M30.445,231.747c-.415-3.543-.491-7.133-1-10.664l-2.314,3.039c9.152-.778,18.305-1.626,27.408-2.859,2.656-.359,5.313-.744,7.939-1.285L59.525,218.3c.626,3.235,1,6.516,1.592,9.757a2.421,2.421,0,0,0,2.952,1.676,2.451,2.451,0,0,0,1.676-2.952c-.595-3.241-.966-6.522-1.591-9.757A2.443,2.443,0,0,0,61.2,215.35c-9.718,2-19.766,2.71-29.708,3.594q-2.181.2-4.363.378a2.453,2.453,0,0,0-2.315,3.038c-.085-.6-.041-.333-.006.053.03.341.061.681.09,1.021.074.87.142,1.741.213,2.611.155,1.9.311,3.806.533,5.7a2.473,2.473,0,0,0,2.4,2.4,2.415,2.415,0,0,0,2.4-2.4Z"/><path class="a" d="M75.211,276.359c-2.314-16.3-3.987-32.678-5.69-49.053a2.446,2.446,0,0,0-3.038-2.314c-7.011,1.427-14.086,2.587-21.192,3.425a113.115,113.115,0,0,1-20.713,1,2.422,2.422,0,0,0-2.4,2.4c.227,11.856.317,23.718.95,35.561.318,5.943.77,11.88,1.446,17.793A108.8,108.8,0,0,0,27.1,300.152c2.313,8.936,6.669,17.366,14.331,22.818a35.8,35.8,0,0,0,30.693,5.035,58.012,58.012,0,0,0,14.482-7.231c4.347-2.8,8.51-5.865,12.721-8.861a2.467,2.467,0,0,0,.861-3.284,2.42,2.42,0,0,0-3.284-.861c-7.276,5.176-14.547,10.977-22.836,14.466a31.13,31.13,0,0,1-27.512-1.7c-7.63-4.325-12.018-11.812-14.39-20.053-2.825-9.818-3.475-20.3-4.09-30.449-.77-12.723-.857-25.471-1.1-38.211l-2.4,2.4a114.272,114.272,0,0,0,21.111-1.052q11.1-1.329,22.07-3.55l-3.038-2.314c1.747,16.8,3.487,33.6,5.861,50.329a2.415,2.415,0,0,0,2.953,1.676,2.462,2.462,0,0,0,1.676-2.952Z"/><path class="a" d="M49.6,156.019q0-15.647.04-31.293.006-4.353.01-8.707c0-3.088-4.8-3.093-4.8,0q-.016,17.1-.045,34.2,0,2.9-.005,5.8c0,3.089,4.8,3.094,4.8,0Z"/><path class="a" d="M40.009,152.509q0-14.194.04-28.389.006-4.076.01-8.151c0-3.088-4.8-3.093-4.8,0q-.015,15.611-.045,31.219,0,2.661,0,5.321c0,3.089,4.8,3.094,4.8,0Z"/><path class="b" d="M42.667,35.5C18.882,35.5,2.442,53.919,2.442,75.475,2.442,100.429,18,116.2,42.668,116.2c25.241,0,40.226-15.773,40.226-40.727C82.894,53.772,66.368,35.5,42.667,35.5Z"/><path class="a" d="M42.667,33.1a43.366,43.366,0,0,0-26.589,8.914A41.817,41.817,0,0,0,1.7,63.51a49.055,49.055,0,0,0,.448,27.1,38.615,38.615,0,0,0,13.671,19.908c6.823,5.126,15.31,7.521,23.747,7.995,8.826.5,18.006-.943,25.838-5.188,15.26-8.271,21.636-26.56,19.559-43.173A42.675,42.675,0,0,0,73.694,45.992,41.612,41.612,0,0,0,50.087,33.7a49.569,49.569,0,0,0-7.42-.6c-3.089-.012-3.093,4.788,0,4.8a38.619,38.619,0,0,1,23.411,7.66A37.014,37.014,0,0,1,79.092,65.043,45,45,0,0,1,78.7,89.068,33.346,33.346,0,0,1,67.38,106.349c-6.075,4.68-13.6,6.889-21.225,7.35-7.875.476-16.094-.614-23.07-4.263A32.475,32.475,0,0,1,8.629,94.252,44.45,44.45,0,0,1,5.136,70.513,37.577,37.577,0,0,1,14.9,49.557,37.356,37.356,0,0,1,36.157,38.388a41,41,0,0,1,6.51-.491C45.755,37.885,45.761,33.085,42.667,33.1Z"/><path class="f" d="M42.664,52.388A23.318,23.318,0,0,0,20.139,69.209c-2.568,9.157.245,19.889,7.942,25.7,7.417,5.6,19.024,5.854,27.06,1.456,8.2-4.491,11.852-14.358,10.761-23.353a23.329,23.329,0,0,0-7.208-14.506,23.859,23.859,0,0,0-16.03-6.119,3.6,3.6,0,0,0,0,7.2c.546,0,1.09.02,1.634.06.3.022.592.049.887.083-.159-.018-.63-.112.085.019a22.273,22.273,0,0,1,3.137.784c.263.089.521.188.783.282.115.042.63.276.053.016.4.179.789.368,1.173.572q.714.378,1.393.815c.18.116.357.234.533.356.128.089.871.656.3.2a18.885,18.885,0,0,1,1.98,1.824c.326.345.633.7.936,1.069-.414-.5-.062-.088.015.022.182.258.366.513.54.778A24.717,24.717,0,0,1,57.5,68.955c.06.117.274.633.02.016.081.2.158.4.232.6.186.5.351,1.013.5,1.529s.272,1.047.375,1.578c.048.241.2,1.39.121.665a24.112,24.112,0,0,1,.118,3.2c-.015.509-.042,1.018-.085,1.526-.018.221-.044.441-.063.662-.091,1.048.08-.447-.021.175a23.862,23.862,0,0,1-.64,2.908q-.168.581-.371,1.149c-.083.233-.173.464-.263.694-.213.544.381-.754-.043.082a23.159,23.159,0,0,1-1.246,2.25c-.114.175-.789,1.093-.536.774s-.48.547-.62.7q-.378.408-.783.789-.254.237-.518.464c-.079.068-.8.631-.4.333.383-.286-.106.069-.2.133-.2.13-.388.265-.586.391q-.481.306-.981.58c-.382.209-.772.395-1.164.582-.526.25.806-.288-.089.038-.281.1-.559.211-.843.307a21.186,21.186,0,0,1-2.537.681c-.208.042-1.547.261-.8.161-.555.074-1.113.121-1.671.156a28.275,28.275,0,0,1-3.122.018c-.448-.023-.894-.07-1.341-.1-.713-.053-.174-.014-.021.008q-.478-.068-.953-.158a21.141,21.141,0,0,1-2.713-.69c-.191-.063-.382-.128-.571-.2,0,0-.918-.354-.4-.144.431.176-.146-.066-.247-.114-.264-.126-.527-.252-.786-.387a22.759,22.759,0,0,1-2.077-1.277c-.762-.506.375.323-.06-.039-.181-.15-.363-.3-.539-.456q-.528-.467-1.016-.977c-.26-.273-.5-.563-.751-.843-.609-.679.282.407-.049-.053-.112-.155-.223-.308-.331-.465a17.748,17.748,0,0,1-1.375-2.379c-.085-.178-.166-.358-.247-.537.314.694.032.075-.033-.109-.152-.432-.309-.86-.442-1.3-.277-.913-.458-1.837-.645-2.77-.2-1.019.041.452-.035-.182q-.05-.416-.087-.832-.059-.682-.084-1.367a24.859,24.859,0,0,1,.094-3.206c.059-.633-.165.845.022-.18.059-.321.112-.641.18-.96q.168-.79.4-1.564c.153-.513.336-1.013.519-1.516.235-.65.064-.156,0-.022.131-.29.265-.578.408-.861a21.918,21.918,0,0,1,1.648-2.7c.576-.824-.278.322.114-.144.2-.242.406-.483.619-.717q.533-.587,1.111-1.126.289-.272.591-.529c.118-.1.853-.672.265-.234q.643-.479,1.324-.9c.458-.285.929-.551,1.409-.8.194-.1.393-.188.587-.287.918-.468-.623.2.353-.155a22.422,22.422,0,0,1,3.243-.947c.284-.057.569-.107.855-.154.259-.039.231-.037-.085.008.177-.021.354-.039.532-.054.664-.06,1.329-.085,2-.09a3.6,3.6,0,0,0,0-7.2Z"/><path class="a" d="M169.98,90.045c0,.129.022.257.016.386l4.714-.638a7.465,7.465,0,0,0-3.117-5.136,17.636,17.636,0,0,0-5.555-2.3,41.905,41.905,0,0,0-12.887-1.087,39.852,39.852,0,0,0-12.814,2.441,8.381,8.381,0,0,0-4.6,4.006,13.529,13.529,0,0,0-1.021,5.976,20.379,20.379,0,0,0,2.939,10.784c2.041,3.064,5.485,4.716,8.894,5.815a26.41,26.41,0,0,0,10.007,1.037,30.671,30.671,0,0,0,10.616-2.288c7.461-3.313,8.6-12.489,7.52-19.639a2.416,2.416,0,0,0-2.952-1.676,2.46,2.46,0,0,0-1.676,2.952c.654,4.326.343,10.349-3.5,13.219-1.975,1.473-4.885,2.113-7.288,2.428a31.674,31.674,0,0,1-7.86.2,18.46,18.46,0,0,1-8.03-2.959c-2.193-1.468-3.054-4.181-3.542-6.659a18.548,18.548,0,0,1-.32-4.074c.037-1.369.1-2.985,1.245-3.923a9.522,9.522,0,0,1,3.684-1.485,40.149,40.149,0,0,1,5.71-1.107,42.973,42.973,0,0,1,12,.108,23.234,23.234,0,0,1,5.52,1.523A4.983,4.983,0,0,1,169.38,89a4.138,4.138,0,0,1,.7,2.067c.5,2.769,4.6,1.948,4.714-.638.006-.129-.021-.257-.016-.386C174.893,86.956,170.093,86.96,169.98,90.045Z"/><path class="a" d="M181.922,90.045c0,.129-.021.257-.015.386a2.409,2.409,0,0,0,2.081,2.357,2.377,2.377,0,0,0,2.633-1.719,3.276,3.276,0,0,1,2.022-2.929,19.448,19.448,0,0,1,4.588-1.457,39.5,39.5,0,0,1,10.552-.6,36.639,36.639,0,0,1,10.607,1.982,3.66,3.66,0,0,1,2.536,2.5,13.548,13.548,0,0,1,.2,4.379c-.192,2.539-.865,5.619-2.59,7.6-1.8,2.063-4.687,2.922-7.181,3.56a30.423,30.423,0,0,1-15.546-1.269c-5.3-2.234-5.923-9.2-5.174-14.159a2.478,2.478,0,0,0-1.677-2.952,2.418,2.418,0,0,0-2.952,1.676c-.989,6.544-.236,14.378,5.583,18.546,2.749,1.969,6.531,2.806,9.838,3.177a33.253,33.253,0,0,0,9.975-.114,21.252,21.252,0,0,0,10.034-4.586c2.66-2.379,3.821-6.321,4.293-9.736.522-3.782.61-8.58-2.544-11.292a13.842,13.842,0,0,0-5.659-2.6,48.688,48.688,0,0,0-6.756-1.251,45.741,45.741,0,0,0-14.6.459,21.744,21.744,0,0,0-6.438,2.249,7.523,7.523,0,0,0-3.742,5.534l4.715.638c-.006-.129.02-.257.015-.386C186.61,86.966,181.809,86.951,181.922,90.045Z"/><path class="a" d="M174.2,93.894c.435-.108.872-.205,1.313-.285.189-.034.378-.063.568-.094.638-.1-.522.047.121-.013a22.878,22.878,0,0,1,2.483-.115c.382.007.765.025,1.146.054q.334.025.667.063.143.015.285.033-.481-.066-.069-.006a24.393,24.393,0,0,1,2.436.541,2.4,2.4,0,0,0,1.276-4.629,22.373,22.373,0,0,0-11.5-.178,2.423,2.423,0,0,0-1.676,2.952,2.449,2.449,0,0,0,2.952,1.677Z"/><path class="a" d="M137.711,88.187a20.255,20.255,0,0,0-5.023-.5,2.513,2.513,0,0,0-1.7.7,2.4,2.4,0,0,0,1.7,4.1,17.674,17.674,0,0,1,2.881.146l-.638-.086q.757.1,1.5.271a2.537,2.537,0,0,0,1.85-.242,2.4,2.4,0,0,0,.861-3.284,2.419,2.419,0,0,0-1.435-1.1Z"/><path class="a" d="M220.326,92.816q.747-.168,1.5-.271l-.638.086a17.68,17.68,0,0,1,2.881-.146,2.4,2.4,0,0,0,1.7-4.1,2.562,2.562,0,0,0-1.7-.7,20.26,20.26,0,0,0-5.023.5,2.4,2.4,0,0,0-.573,4.387,2.6,2.6,0,0,0,1.849.242Z"/><path class="a" d="M166.55,129.644c3.016,2.955,7.8,3.811,11.845,3.81s8.83-.847,11.85-3.8c2.213-2.164-1.183-5.557-3.394-3.395-.1.1-.6.522-.3.286.28-.221-.369.245-.517.336-.263.162-.534.311-.81.449-.186.093-.374.182-.564.265.325-.142-.008,0-.161.054a17.73,17.73,0,0,1-6.1,1,17.239,17.239,0,0,1-5.993-.97c-.028-.01-.722-.3-.27-.1q-.238-.1-.473-.221c-.306-.151-.607-.314-.9-.494-.224-.138-.433-.292-.65-.44.614.418-.017-.036-.166-.183-2.208-2.164-5.6,1.228-3.395,3.394Z"/><path class="a" d="M177.174,107.33a48.439,48.439,0,0,1,1.139,5.227l-.085-.638a3.23,3.23,0,0,1,.019.722l.086-.638a1.8,1.8,0,0,1-.08.324l.242-.573a1.171,1.171,0,0,1-.115.208l.376-.485a1.132,1.132,0,0,1-.171.168l.486-.375a3.569,3.569,0,0,1-.415.219l.574-.242a3.035,3.035,0,0,1-.7.2l.638-.086a2.814,2.814,0,0,1-.655,0l.638.085c-.247-.034-.489-.094-.736-.128a2.657,2.657,0,0,0-1.85.242,2.4,2.4,0,0,0-.861,3.284,2.3,2.3,0,0,0,1.435,1.1c.537.072,1.058.21,1.605.234a5.06,5.06,0,0,0,2.333-.55,3.308,3.308,0,0,0,1.852-2.187,5.6,5.6,0,0,0-.025-2.387c-.283-1.684-.672-3.353-1.1-5a2.4,2.4,0,0,0-4.628,1.276Z"/><path class="a" d="M150.471,92.84c-.821,2.661-.29,8.785,4.753,9.309,6.666-.036,7.024-7.44,4.782-10.922C158.17,88.376,152.769,87.188,150.471,92.84Z"/><path class="a" d="M205.408,92.868c.818,2.662.281,8.786-4.762,9.3-6.666-.043-7.017-7.447-4.772-10.927C197.713,88.4,203.115,87.213,205.408,92.868Z"/></svg>